<?xml version="1.0" encoding="utf-8"?>
<svg xmlns="http://www.w3.org/2000/svg" viewBox="172.6 126.07 1056.67 247.47">
<polygon fill="#FFFFFF" points="526.706,243.121 510.648,243.121 510.648,171.531 526.706,171.531 526.706,203.184 553.551,171.531 
	572.778,171.531 543.274,205.946 575.028,243.121 554.779,243.121 526.706,209.933 "/>
<g>
	<path fill="#FFFFFF" d="M621.051,244.809c-7.5,0-14.028-1.585-19.585-4.756
		c-5.557-3.17-9.869-7.568-12.937-13.193s-4.603-12.136-4.603-19.534c0-7.363,1.535-13.865,4.603-19.507
		c3.068-5.643,7.38-10.048,12.937-13.219c5.557-3.17,12.085-4.755,19.585-4.755s14.028,1.585,19.585,4.755
		c5.557,3.171,9.87,7.576,12.938,13.219c3.068,5.642,4.601,12.144,4.601,19.507c0,7.398-1.533,13.909-4.601,19.534
		s-7.381,10.023-12.938,13.193C635.079,243.224,628.551,244.809,621.051,244.809 M621.051,230.798c4.193,0,7.85-0.998,10.969-2.992
		c3.118-1.993,5.548-4.756,7.287-8.284c1.738-3.528,2.608-7.594,2.608-12.196c0-4.603-0.87-8.667-2.608-12.195
		c-1.739-3.527-4.169-6.29-7.287-8.284c-3.119-1.995-6.776-2.991-10.969-2.991s-7.858,0.996-10.995,2.991
		c-3.136,1.994-5.565,4.757-7.286,8.284c-1.722,3.528-2.582,7.592-2.582,12.195c0,4.602,0.86,8.668,2.582,12.196
		c1.721,3.528,4.15,6.291,7.286,8.284C613.193,229.8,616.858,230.798,621.051,230.798"/>
	<path fill="#FFFFFF" d="M693.355,243.122h-15.801v-71.59h31.09c8.217,0,14.582,2.165,19.1,6.494
		c4.517,4.329,6.775,10.04,6.775,17.132c0,4.976-1.117,9.279-3.349,12.91c-2.233,3.631-5.446,6.349-9.64,8.157l18.307,26.897
		h-18.204l-16.363-24.495h-11.915V243.122z M706.805,185.083h-13.449v20.25h13.449c3.681,0,6.553-0.835,8.616-2.506
		c2.062-1.671,3.094-4.227,3.094-7.669c0-3.41-1.032-5.94-3.094-7.595C713.357,185.911,710.485,185.083,706.805,185.083"/>
	<polygon fill="#FFFFFF" points="811.733,243.121 758.654,243.121 758.654,171.531 810.711,171.531 
		810.711,185.082 774.455,185.082 774.455,200.218 805.598,200.218 805.598,213.769 774.455,213.769 774.455,229.57 811.733,229.57 
			"/>
	<polygon fill="#FFFFFF" points="848.04,243.121 831.982,243.121 831.982,171.531 848.04,171.531 
		848.04,203.184 874.886,171.531 894.113,171.531 864.608,205.946 896.362,243.121 876.113,243.121 848.04,209.933 	"/>
	<polygon fill="#FFFFFF" points="947.601,243.121 931.545,243.121 931.545,185.339 908.176,185.339 
		908.176,171.531 970.972,171.531 970.972,185.339 947.601,185.339 	"/>
	<path fill="#FFFFFF" d="M1038.674,211.417v-39.885h15.801v39.885c0,10.706-2.829,18.946-8.489,24.725
		c-5.659,5.778-13.722,8.668-24.187,8.668c-10.433,0-18.479-2.89-24.136-8.668c-5.659-5.779-8.489-14.019-8.489-24.725v-39.885
		h16.058v39.885c0,12.921,5.522,19.381,16.567,19.381c5.521,0,9.716-1.637,12.579-4.909
		C1037.242,222.617,1038.674,217.792,1038.674,211.417"/>
	<path fill="#FFFFFF" d="M1092.98,243.122h-15.801v-71.59h31.09c8.215,0,14.582,2.165,19.1,6.494
		c4.517,4.329,6.774,10.04,6.774,17.132c0,4.976-1.116,9.279-3.349,12.91c-2.232,3.631-5.445,6.349-9.639,8.157l18.306,26.897
		h-18.204l-16.363-24.495h-11.914V243.122z M1106.429,185.083h-13.448v20.25h13.448c3.682,0,6.553-0.835,8.615-2.506
		c2.063-1.671,3.095-4.227,3.095-7.669c0-3.41-1.031-5.94-3.095-7.595C1112.981,185.911,1110.11,185.083,1106.429,185.083"/>
	<path fill="#FFFFFF" d="M1209.312,243.121l-6.137-16.159h-29.197l-6.137,16.159h-16.62l29.455-71.59
		h16.313l29.453,71.59H1209.312z M1188.602,188.56l-9.921,26.079h19.791L1188.602,188.56z"/>
	<path fill="#1A7B68" d="M173.559,167.689v175.418c0,0,21.951,1.363,50.576,7.145
		c28.625,5.782,55.982,16.357,55.982,16.357V191.474c0,0-27.427-9.801-51.658-15.324
		C204.229,170.627,173.559,167.689,173.559,167.689"/>
	<path fill="#1A7B68" d="M237.671,166.232c34.783,11.187,52.691,18.002,52.691,18.002
		s-34.712-17.649-49.447-24.348c-28.273-13.537-53.279-16.193-53.279-16.193s-0.835,1.74-3.996,6.064
		c-3.161,4.325-4.841,5.97-4.841,5.97S202.888,155.045,237.671,166.232"/>
	<path fill="#1A7B68" d="M295.481,173.135c0,0-28.003-18.875-39.975-26.203
		c-22.898-14.651-44.138-19.59-44.138-19.59s-0.903,1.408-4.082,4.794c-3.18,3.387-4.8,4.624-4.8,4.624s20.805,1.97,49.555,15.29
		C280.792,165.368,295.481,173.135,295.481,173.135"/>
	<path fill="#1A7B68" d="M318.081,195.664c-3.425,0.396-6.584,0.534-9.057,0.444
		c-2.473,0.09-5.632-0.048-9.057-0.444c-5.353-0.619-9.934-1.701-12.189-2.773c0.001,0.609,0.199,159.434,0,168.043
		c-0.001,12.937,21.245,11.691,21.246,11.691c0,0,21.247,1.245,21.245-11.691c-0.199-8.609,0-167.435,0-168.043
		C328.015,193.963,323.433,195.045,318.081,195.664"/>
	<path fill="#1A7B68" d="M327.684,184.235c0,0,17.908-6.815,52.691-18.002
		c34.783-11.187,58.872-10.506,58.872-10.506s-1.68-1.645-4.841-5.97c-3.161-4.324-3.995-6.063-3.995-6.063
		s-25.006,2.656-53.279,16.193C362.396,166.585,327.684,184.235,327.684,184.235"/>
	<path fill="#1A7B68" d="M415.561,136.76c0,0-1.621-1.237-4.8-4.624
		c-3.18-3.386-4.082-4.795-4.082-4.795s-21.241,4.94-44.138,19.59c-11.972,7.329-39.976,26.204-39.976,26.204
		s14.691-7.767,43.441-21.086C394.754,138.73,415.561,136.76,415.561,136.76"/>
	<path fill="#1A7B68" d="M405.012,298.168l-4.767,4.767l-41.216,11.044
		c-1.764,0.473-3.377-1.142-2.905-2.904l11.044-41.217l4.767-4.767l72.553-72.553v-24.849c0,0-30.67,2.938-54.9,8.461
		c-24.231,5.523-51.658,15.323-51.658,15.323v175.136c0,0,27.357-10.575,55.982-16.357c28.625-5.781,50.576-7.145,50.576-7.145
		v-84.416L405.012,298.168z"/>
	
		<rect x="409.516" y="192.07" transform="matrix(0.7071 0.7071 -0.7071 0.7071 297.9816 -228.3068)" fill="#FFFFFF" width="30.113" height="106.92"/>
	<path fill="#FFFFFF" d="M367.815,304.157l26.534-7.109l-21.294-21.294l-7.11,26.534
		C365.641,303.423,366.68,304.462,367.815,304.157"/>
	<path fill="#FFFFFF" d="M476.09,215.307l-21.294-21.293l8.825-8.826c2.763-2.762,7.242-2.762,10.005,0
		l11.289,11.29c2.762,2.763,2.762,7.242,0,10.004L476.09,215.307z"/>
	<g>
		<path fill="#FFFFFF" d="M531.453,330.625h-20.805v-62.117h20.805c6.891,0,12.792,1.228,17.704,3.683s8.672,6.006,11.282,10.649
			c2.61,4.645,3.915,10.22,3.915,16.728c0,6.507-1.305,12.082-3.915,16.727c-2.61,4.644-6.37,8.194-11.282,10.647
			C544.245,329.398,538.344,330.625,531.453,330.625 M531.453,272.768h-16.01v53.598h16.01c8.826,0,15.695-2.352,20.607-7.055
			c4.912-4.702,7.368-11.284,7.368-19.743s-2.456-15.041-7.368-19.745S540.279,272.768,531.453,272.768"/>
		<path fill="#FFFFFF" d="M531.453,332.125h-22.305v-65.117h22.305c7.093,0,13.275,1.292,18.375,3.841
			c5.161,2.579,9.17,6.366,11.919,11.256c2.726,4.851,4.107,10.726,4.107,17.463c0,6.736-1.382,12.611-4.107,17.461
			c-2.749,4.892-6.759,8.678-11.919,11.255C544.731,330.832,538.549,332.125,531.453,332.125z M512.148,329.125h19.305
			c6.626,0,12.357-1.186,17.033-3.525c4.614-2.304,8.195-5.683,10.645-10.041c2.47-4.396,3.723-9.776,3.723-15.991
			c0-6.216-1.252-11.597-3.723-15.993c-2.449-4.357-6.031-7.736-10.645-10.042c-4.679-2.339-10.41-3.524-17.034-3.524h-19.305
			V329.125z M531.453,327.865h-17.51v-56.598h17.51c9.186,0,16.468,2.514,21.645,7.472c5.196,4.976,7.831,11.983,7.831,20.828
			c0,8.846-2.635,15.853-7.831,20.827C547.919,325.352,540.637,327.865,531.453,327.865z M516.943,324.865h14.51
			c8.385,0,14.969-2.233,19.569-6.638c4.583-4.387,6.906-10.665,6.906-18.66s-2.323-14.273-6.906-18.662
			c-4.599-4.404-11.184-6.638-19.569-6.638h-14.51V324.865z"/>
	</g>
	<g>
		<path fill="#FFFFFF" d="M576.449,273.433c0,0.977-0.316,1.768-0.947,2.375c-0.63,0.605-1.444,0.909-2.44,0.909
			c-0.998,0-1.811-0.304-2.442-0.909c-0.631-0.607-0.945-1.398-0.945-2.375c0-0.976,0.314-1.768,0.945-2.374
			c0.631-0.605,1.444-0.909,2.442-0.909c0.996,0,1.81,0.304,2.44,0.909C576.133,271.665,576.449,272.457,576.449,273.433
			 M575.349,330.625h-4.574v-43.837h4.574V330.625z"/>
		<path fill="#FFFFFF" d="M576.849,332.125h-7.574v-46.837h7.574V332.125z M572.275,329.125h1.574v-40.837h-1.574V329.125z
			 M573.062,278.217c-1.392,0-2.563-0.446-3.48-1.327c-0.921-0.887-1.407-2.081-1.407-3.457s0.486-2.571,1.406-3.455
			c0.918-0.882,2.089-1.328,3.481-1.328s2.563,0.446,3.479,1.328c0.921,0.885,1.408,2.08,1.408,3.455
			c0,1.374-0.486,2.569-1.407,3.455C575.625,277.771,574.454,278.217,573.062,278.217z M573.062,271.649
			c-0.799,0-1.184,0.28-1.403,0.491c-0.207,0.199-0.484,0.551-0.484,1.292c0,0.732,0.26,1.077,0.486,1.295
			c0.218,0.209,0.603,0.489,1.401,0.489c0.798,0,1.181-0.28,1.4-0.49c0.336-0.324,0.487-0.724,0.487-1.294
			c0-0.739-0.278-1.092-0.487-1.293C574.243,271.93,573.86,271.649,573.062,271.649z"/>
	</g>
	<g>
		<path fill="#FFFFFF" d="M588.896,350.148h-4.574v-63.36h4.442v9.229c1.73-3.165,4.201-5.656,7.411-7.476
			c3.212-1.819,6.709-2.729,10.491-2.729c4.164,0,7.888,0.976,11.172,2.928c3.284,1.953,5.872,4.644,7.764,8.075
			c1.891,3.433,2.837,7.396,2.837,11.892c0,4.497-0.946,8.46-2.837,11.892c-1.892,3.431-4.48,6.121-7.764,8.074
			c-3.284,1.952-7.008,2.928-11.172,2.928c-3.724,0-7.177-0.887-10.358-2.661c-3.183-1.774-5.653-4.216-7.412-7.32V350.148z
			 M606.27,327.431c3.372,0,6.378-0.8,9.017-2.396c2.639-1.598,4.707-3.809,6.202-6.634c1.495-2.824,2.243-6.056,2.243-9.694
			c0-3.638-0.748-6.862-2.243-9.672c-1.495-2.811-3.563-5.021-6.202-6.634c-2.639-1.612-5.645-2.419-9.017-2.419
			s-6.377,0.807-9.017,2.419c-2.639,1.612-4.706,3.823-6.201,6.634c-1.496,2.81-2.244,6.034-2.244,9.672
			c0,3.639,0.748,6.87,2.244,9.694c1.495,2.825,3.563,5.036,6.201,6.634C599.893,326.631,602.898,327.431,606.27,327.431"/>
		<path fill="#FFFFFF" d="M590.396,351.648h-7.574v-66.36h7.442v6.05c1.465-1.609,3.193-2.98,5.171-4.102
			c3.425-1.94,7.204-2.924,11.231-2.924c4.419,0,8.436,1.056,11.938,3.139c3.502,2.082,6.298,4.989,8.311,8.64
			c2.006,3.642,3.023,7.887,3.023,12.616c0,4.73-1.017,8.976-3.023,12.615c-2.014,3.65-4.81,6.558-8.312,8.64
			c-3.503,2.083-7.52,3.139-11.938,3.139c-3.966,0-7.697-0.959-11.088-2.852c-1.975-1.101-3.707-2.453-5.182-4.045V351.648z
			 M585.822,348.648h1.574v-32.72l2.805,4.951c1.614,2.85,3.915,5.12,6.837,6.749c2.94,1.641,6.179,2.472,9.627,2.472
			c3.872,0,7.373-0.914,10.405-2.717c3.037-1.807,5.465-4.333,7.217-7.51c1.759-3.191,2.65-6.948,2.65-11.167
			c0-4.218-0.892-7.976-2.651-11.168c-1.751-3.177-4.18-5.703-7.217-7.51c-3.033-1.803-6.534-2.717-10.405-2.717
			c-3.503,0-6.784,0.853-9.752,2.533c-2.949,1.672-5.249,3.99-6.833,6.891l-2.816,5.152v-13.601h-1.442V348.648z M606.27,328.931
			c-3.631,0-6.926-0.879-9.793-2.611c-2.864-1.734-5.135-4.162-6.751-7.217c-1.604-3.029-2.418-6.527-2.418-10.396
			c0-3.869,0.814-7.36,2.419-10.377c1.615-3.036,3.884-5.462,6.743-7.209c2.868-1.751,6.165-2.639,9.799-2.639
			c3.636,0,6.933,0.888,9.799,2.639c2.86,1.748,5.129,4.174,6.744,7.21c1.605,3.017,2.418,6.507,2.418,10.376
			c0,3.868-0.813,7.365-2.417,10.396c-1.616,3.055-3.888,5.482-6.751,7.216C613.197,328.052,609.902,328.931,606.27,328.931z
			 M606.27,291.482c-3.075,0-5.846,0.74-8.235,2.199c-2.395,1.463-4.299,3.501-5.659,6.058c-1.372,2.578-2.068,5.595-2.068,8.968
			c0,3.374,0.696,6.399,2.069,8.992c1.359,2.568,3.261,4.604,5.652,6.053c2.392,1.445,5.164,2.179,8.24,2.179
			c3.077,0,5.85-0.733,8.241-2.179c2.392-1.448,4.293-3.484,5.652-6.052c1.373-2.594,2.068-5.619,2.068-8.993
			c0-3.372-0.695-6.39-2.067-8.968c-1.36-2.556-3.264-4.594-5.66-6.058C612.117,292.223,609.346,291.482,606.27,291.482z"/>
	</g>
	<g>
		<polygon fill="#FFFFFF" points="639.434,330.625 634.86,330.625 634.86,264.337 639.434,263.716 		"/>
		<path fill="#FFFFFF" d="M640.934,332.125h-7.574v-69.099l7.574-1.028V332.125z M636.36,329.125h1.574v-63.691l-1.574,0.214
			V329.125z"/>
	</g>
	<g>
		<path fill="#FFFFFF" d="M668.024,331.601c-4.34,0-8.175-0.976-11.502-2.928c-3.329-1.953-5.938-4.644-7.83-8.074
			c-1.891-3.432-2.836-7.395-2.836-11.892c0-4.496,0.945-8.459,2.836-11.892c1.892-3.432,4.501-6.122,7.83-8.075
			c3.327-1.952,7.162-2.928,11.502-2.928c4.339,0,8.173,0.976,11.502,2.928c3.328,1.953,5.938,4.644,7.829,8.075
			c1.892,3.433,2.837,7.396,2.837,11.892c0,4.497-0.945,8.46-2.837,11.892c-1.891,3.431-4.501,6.121-7.829,8.074
			C676.197,330.625,672.363,331.601,668.024,331.601 M668.024,327.431c3.401,0,6.414-0.8,9.039-2.396
			c2.624-1.598,4.685-3.809,6.18-6.634c1.495-2.824,2.242-6.056,2.242-9.694c0-3.638-0.747-6.862-2.242-9.672
			c-1.495-2.811-3.556-5.021-6.18-6.634c-2.625-1.612-5.638-2.419-9.039-2.419c-3.402,0-6.415,0.807-9.039,2.419
			c-2.625,1.612-4.685,3.823-6.18,6.634c-1.495,2.81-2.243,6.034-2.243,9.672c0,3.639,0.748,6.87,2.243,9.694
			c1.495,2.825,3.555,5.036,6.18,6.634C661.609,326.631,664.622,327.431,668.024,327.431"/>
		<path fill="#FFFFFF" d="M668.024,333.101c-4.592,0-8.717-1.055-12.261-3.134c-3.548-2.082-6.369-4.99-8.384-8.644
			c-2.006-3.64-3.022-7.884-3.022-12.616c0-4.731,1.017-8.976,3.022-12.615c2.015-3.655,4.836-6.563,8.385-8.646
			c3.544-2.079,7.669-3.134,12.261-3.134c4.589,0,8.714,1.055,12.261,3.134c3.55,2.083,6.371,4.992,8.384,8.646
			c2.006,3.639,3.023,7.884,3.023,12.615c0,4.732-1.017,8.978-3.023,12.616c-2.013,3.652-4.834,6.561-8.383,8.644
			C676.738,332.046,672.613,333.101,668.024,333.101z M668.024,287.313c-4.051,0-7.666,0.916-10.743,2.722
			c-3.077,1.805-5.525,4.33-7.276,7.506c-1.758,3.19-2.649,6.948-2.649,11.167c0,4.22,0.892,7.978,2.65,11.168
			c1.75,3.174,4.198,5.699,7.275,7.504c3.077,1.806,6.691,2.722,10.743,2.722c4.049,0,7.664-0.916,10.743-2.722
			c3.077-1.806,5.525-4.331,7.274-7.505c1.759-3.189,2.65-6.946,2.65-11.167c0-4.22-0.892-7.977-2.65-11.168
			c-1.75-3.174-4.197-5.699-7.275-7.505C675.688,288.229,672.073,287.313,668.024,287.313z M668.024,328.931
			c-3.663,0-6.966-0.88-9.818-2.614c-2.848-1.732-5.111-4.16-6.727-7.214c-1.604-3.03-2.417-6.527-2.417-10.396
			c0-3.869,0.813-7.359,2.418-10.376c1.615-3.036,3.875-5.461,6.719-7.208c2.852-1.752,6.157-2.641,9.824-2.641
			c3.666,0,6.971,0.889,9.824,2.641c2.844,1.748,5.105,4.173,6.719,7.208c1.604,3.015,2.417,6.506,2.417,10.376
			c0,3.869-0.813,7.367-2.416,10.396c-1.615,3.053-3.878,5.48-6.726,7.214C674.989,328.052,671.686,328.931,668.024,328.931z
			 M668.024,291.482c-3.104,0-5.881,0.739-8.254,2.197c-2.382,1.463-4.28,3.502-5.641,6.06c-1.372,2.578-2.067,5.596-2.067,8.968
			c0,3.374,0.696,6.399,2.068,8.993c1.36,2.569,3.255,4.605,5.634,6.054c2.375,1.444,5.154,2.177,8.259,2.177
			c3.104,0,5.883-0.732,8.26-2.178c2.379-1.447,4.274-3.484,5.634-6.053c1.372-2.593,2.067-5.618,2.067-8.993
			c0-3.373-0.695-6.391-2.066-8.968c-1.36-2.557-3.258-4.596-5.641-6.06C673.904,292.222,671.127,291.482,668.024,291.482z"/>
	</g>
	<g>
		<path fill="#FFFFFF" d="M763.384,330.625h-4.575v-25.556c0-4.853-1.094-8.578-3.277-11.182c-2.185-2.603-5.125-3.905-8.819-3.905
			c-4.251,0-7.719,1.599-10.402,4.792c-2.683,3.195-4.024,7.47-4.024,12.823v23.027h-4.574v-25.556
			c0-4.853-1.093-8.578-3.276-11.182c-2.185-2.603-5.125-3.905-8.819-3.905c-4.253,0-7.72,1.599-10.402,4.792
			c-2.684,3.195-4.024,7.47-4.024,12.823v23.027h-4.575v-43.837h4.443v8.208c1.494-2.928,3.569-5.191,6.223-6.788
			c2.654-1.597,5.639-2.396,8.952-2.396c3.518,0,6.561,0.954,9.127,2.861c2.565,1.909,4.39,4.577,5.476,8.009
			c1.437-3.372,3.636-6.026,6.598-7.965c2.962-1.937,6.26-2.905,9.896-2.905c4.751,0,8.614,1.627,11.591,4.881
			c2.976,3.254,4.465,7.883,4.465,13.887V330.625z"/>
		<path fill="#FFFFFF" d="M764.884,332.125h-7.575v-27.056c0-4.465-0.984-7.902-2.927-10.218c-1.902-2.267-4.412-3.369-7.67-3.369
			c-3.819,0-6.847,1.393-9.254,4.257c-2.437,2.903-3.673,6.893-3.673,11.858v24.527h-7.574v-27.056
			c0-4.465-0.984-7.903-2.926-10.218c-1.902-2.267-4.412-3.369-7.67-3.369c-3.82,0-6.848,1.393-9.254,4.257
			c-2.438,2.901-3.673,6.892-3.673,11.858v24.527h-7.575v-46.837h7.443v4.882c1.152-1.272,2.472-2.358,3.949-3.247
			c2.88-1.732,6.151-2.61,9.726-2.61c3.831,0,7.202,1.063,10.021,3.157c1.982,1.476,3.571,3.375,4.75,5.671
			c1.45-2.284,3.328-4.187,5.607-5.678c3.197-2.091,6.803-3.15,10.718-3.15c5.167,0,9.439,1.807,12.697,5.368
			c3.224,3.525,4.858,8.538,4.858,14.899V332.125z M760.309,329.125h1.575V304.58c0-5.588-1.37-9.92-4.072-12.874
			c-2.704-2.956-6.133-4.394-10.483-4.394c-3.321,0-6.375,0.896-9.075,2.661c-2.696,1.764-4.728,4.219-6.039,7.297l-1.588,3.728
			l-1.222-3.863c-0.998-3.151-2.614-5.525-4.941-7.258c-2.322-1.726-5.015-2.564-8.231-2.564c-3.021,0-5.773,0.733-8.179,2.181
			c-2.397,1.443-4.302,3.523-5.66,6.185l-2.836,5.558v-12.947h-1.443v40.837h1.575v-21.527c0-5.691,1.473-10.331,4.376-13.788
			c2.97-3.535,6.855-5.327,11.551-5.327c4.141,0,7.495,1.494,9.968,4.44c2.407,2.87,3.628,6.957,3.628,12.146v24.056h1.574v-21.527
			c0-5.69,1.472-10.329,4.376-13.788c2.971-3.535,6.856-5.327,11.551-5.327c4.141,0,7.495,1.494,9.968,4.44
			c2.408,2.871,3.629,6.958,3.629,12.146V329.125z"/>
	</g>
	<g>
		<path fill="#FFFFFF" d="M791.533,331.601c-4.34,0-8.175-0.976-11.502-2.928c-3.328-1.953-5.938-4.644-7.829-8.074
			c-1.892-3.432-2.837-7.395-2.837-11.892c0-4.496,0.945-8.459,2.837-11.892c1.891-3.432,4.501-6.122,7.829-8.075
			c3.327-1.952,7.162-2.928,11.502-2.928c4.339,0,8.174,0.976,11.502,2.928c3.327,1.953,5.938,4.644,7.83,8.075
			c1.891,3.433,2.836,7.396,2.836,11.892c0,4.497-0.945,8.46-2.836,11.892c-1.893,3.431-4.503,6.121-7.83,8.074
			C799.707,330.625,795.872,331.601,791.533,331.601 M791.533,327.431c3.4,0,6.414-0.8,9.039-2.396
			c2.624-1.598,4.684-3.809,6.18-6.634c1.496-2.824,2.243-6.056,2.243-9.694c0-3.638-0.747-6.862-2.243-9.672
			c-1.496-2.811-3.556-5.021-6.18-6.634c-2.625-1.612-5.639-2.419-9.039-2.419c-3.401,0-6.415,0.807-9.038,2.419
			c-2.626,1.612-4.686,3.823-6.181,6.634c-1.495,2.81-2.242,6.034-2.242,9.672c0,3.639,0.747,6.87,2.242,9.694
			c1.495,2.825,3.555,5.036,6.181,6.634C785.118,326.631,788.132,327.431,791.533,327.431"/>
		<path fill="#FFFFFF" d="M791.533,333.101c-4.592,0-8.717-1.055-12.261-3.134c-3.551-2.084-6.371-4.992-8.384-8.645
			c-2.006-3.639-3.023-7.884-3.023-12.615c0-4.73,1.018-8.976,3.023-12.615c2.012-3.653,4.833-6.562,8.384-8.646
			c3.544-2.079,7.669-3.134,12.261-3.134c4.591,0,8.716,1.055,12.261,3.134c3.55,2.084,6.37,4.992,8.385,8.645
			c2.006,3.642,3.022,7.886,3.022,12.616c0,4.731-1.017,8.976-3.022,12.615c-2.015,3.653-4.836,6.562-8.384,8.645
			C800.249,332.046,796.124,333.101,791.533,333.101z M791.533,287.313c-4.051,0-7.665,0.916-10.743,2.722
			c-3.078,1.807-5.525,4.332-7.274,7.505c-1.759,3.192-2.65,6.949-2.65,11.168c0,4.22,0.892,7.977,2.65,11.168
			c1.749,3.173,4.196,5.697,7.274,7.504c3.078,1.806,6.692,2.722,10.743,2.722c4.05,0,7.664-0.916,10.743-2.722
			c3.076-1.806,5.524-4.331,7.275-7.505c1.758-3.19,2.649-6.948,2.649-11.167c0-4.218-0.892-7.976-2.649-11.168
			c-1.751-3.173-4.198-5.698-7.276-7.505C799.197,288.229,795.583,287.313,791.533,287.313z M791.533,328.931
			c-3.663,0-6.967-0.88-9.817-2.614c-2.848-1.732-5.11-4.159-6.728-7.214c-1.603-3.028-2.416-6.526-2.416-10.396
			c0-3.87,0.813-7.361,2.418-10.377c1.615-3.036,3.876-5.461,6.72-7.207c2.851-1.752,6.156-2.641,9.823-2.641
			c3.666,0,6.972,0.889,9.824,2.641c2.842,1.746,5.103,4.171,6.719,7.207c1.605,3.015,2.419,6.506,2.419,10.377
			c0,3.87-0.813,7.368-2.418,10.396c-1.617,3.054-3.88,5.48-6.725,7.213C798.498,328.052,795.195,328.931,791.533,328.931z
			 M791.533,291.482c-3.104,0-5.881,0.739-8.253,2.197c-2.383,1.463-4.28,3.502-5.642,6.06c-1.371,2.577-2.066,5.594-2.066,8.968
			c0,3.375,0.695,6.4,2.068,8.992c1.359,2.57,3.255,4.607,5.634,6.055c2.375,1.444,5.153,2.177,8.259,2.177
			c3.104,0,5.883-0.732,8.26-2.178c2.377-1.446,4.272-3.483,5.634-6.054c1.372-2.591,2.068-5.616,2.068-8.992
			c0-3.374-0.695-6.391-2.067-8.967c-1.361-2.559-3.26-4.598-5.641-6.061C797.414,292.222,794.637,291.482,791.533,291.482z"/>
	</g>
	<g>
		<polygon fill="#FFFFFF" points="837.98,330.625 833.582,330.625 813.657,286.788 818.891,286.788 835.869,325.034 
			852.892,286.788 857.905,286.788 		"/>
		<path fill="#FFFFFF" d="M838.946,332.125h-6.33l-21.288-46.837h8.538l16.005,36.053l16.046-36.053h8.317L838.946,332.125z
			 M834.548,329.125h2.467l18.562-40.837h-1.71l-17.999,40.439l-17.952-40.439h-1.929L834.548,329.125z"/>
	</g>
	<g>
		<path fill="#FFFFFF" d="M895.952,322.373l2.111,3.549c-2.349,1.716-5.097,3.091-8.247,4.127c-3.154,1.035-6.387,1.552-9.7,1.552
			c-4.515,0-8.438-0.96-11.765-2.883c-3.329-1.923-5.91-4.606-7.741-8.053c-1.834-3.446-2.749-7.433-2.749-11.958
			c0-4.496,0.901-8.468,2.704-11.914c1.804-3.444,4.311-6.137,7.521-8.075c3.212-1.937,6.898-2.905,11.063-2.905
			c3.931,0,7.375,0.851,10.338,2.551c2.961,1.701,5.271,4.111,6.927,7.232c1.657,3.121,2.486,6.781,2.486,10.981v4.126h-36.332
			c0.38,5.029,2.177,9.074,5.388,12.136c3.21,3.061,7.353,4.592,12.426,4.592c2.609,0,5.271-0.427,7.982-1.287
			C891.076,325.286,893.604,324.029,895.952,322.373 M879.148,289.982c-2.961,0-5.645,0.688-8.049,2.064
			c-2.404,1.375-4.362,3.313-5.872,5.813c-1.511,2.499-2.396,5.434-2.66,8.807h31.625v-1.021c0-3.017-0.646-5.701-1.937-8.053
			c-1.291-2.353-3.063-4.209-5.321-5.568C884.676,290.664,882.081,289.982,879.148,289.982 M891.861,265.357l-13.549,13.134h-5.014
			l12.491-13.134H891.861z"/>
		<path fill="#FFFFFF" d="M880.116,333.101c-4.765,0-8.976-1.038-12.516-3.084c-3.562-2.058-6.359-4.967-8.314-8.647
			c-1.94-3.646-2.925-7.907-2.925-12.662c0-4.72,0.967-8.962,2.875-12.609c1.925-3.676,4.642-6.591,8.074-8.664
			c3.436-2.071,7.418-3.121,11.838-3.121c4.176,0,7.904,0.925,11.084,2.75c3.2,1.838,5.725,4.473,7.506,7.83
			c1.766,3.326,2.661,7.257,2.661,11.685v5.626H864.24c0.575,3.924,2.138,7.059,4.75,9.55c2.948,2.812,6.674,4.178,11.391,4.178
			c2.45,0,4.983-0.409,7.529-1.217c2.552-0.807,4.966-2.007,7.178-3.566l1.324-0.935l3.639,6.115l-1.103,0.805
			c-2.464,1.8-5.378,3.261-8.663,4.341C886.995,332.554,883.574,333.101,880.116,333.101z M879.148,287.313
			c-3.866,0-7.328,0.905-10.288,2.689c-2.955,1.785-5.3,4.304-6.966,7.487c-1.681,3.213-2.533,6.987-2.533,11.218
			c0,4.259,0.866,8.045,2.573,11.253c1.688,3.178,4.1,5.687,7.167,7.459c3.078,1.779,6.784,2.682,11.015,2.682
			c3.14,0,6.246-0.497,9.232-1.477c2.495-0.821,4.745-1.876,6.707-3.143l-0.586-0.986c-2.088,1.308-4.319,2.341-6.654,3.079
			c-2.838,0.899-5.676,1.356-8.435,1.356c-5.448,0-9.977-1.685-13.461-5.006c-3.474-3.313-5.441-7.723-5.849-13.108l-0.121-1.613
			h36.449v-2.626c0-3.932-0.777-7.39-2.312-10.278c-1.512-2.851-3.647-5.083-6.349-6.635
			C886.021,288.104,882.793,287.313,879.148,287.313z M895.692,308.166h-34.747l0.127-1.617c0.28-3.593,1.247-6.777,2.872-9.466
			c1.635-2.708,3.792-4.841,6.41-6.338c2.621-1.501,5.58-2.263,8.794-2.263c3.193,0,6.073,0.76,8.56,2.257
			c2.476,1.49,4.448,3.554,5.863,6.132c1.407,2.564,2.121,5.517,2.121,8.774V308.166z M864.246,305.166h28.44
			c-0.065-2.556-0.651-4.858-1.745-6.852c-1.157-2.107-2.766-3.792-4.78-5.005c-2.014-1.213-4.373-1.827-7.013-1.827
			c-2.684,0-5.142,0.628-7.304,1.866c-2.17,1.241-3.965,3.02-5.333,5.286C865.374,300.516,864.615,302.707,864.246,305.166z
			 M878.92,279.991h-9.118l15.345-16.134h10.417L878.92,279.991z M876.796,276.991h0.909l10.454-10.134h-1.726L876.796,276.991z"/>
	</g>
	<g>
		<path fill="#FFFFFF" d="M929.028,350.148h-4.574v-63.36h4.441v9.229c1.729-3.165,4.201-5.656,7.412-7.476s6.707-2.729,10.49-2.729
			c4.163,0,7.888,0.976,11.172,2.928c3.284,1.953,5.872,4.644,7.763,8.075c1.893,3.433,2.838,7.396,2.838,11.892
			c0,4.497-0.945,8.46-2.838,11.892c-1.891,3.431-4.479,6.121-7.763,8.074c-3.284,1.952-7.009,2.928-11.172,2.928
			c-3.724,0-7.177-0.887-10.358-2.661s-5.652-4.216-7.411-7.32V350.148z M946.401,327.431c3.373,0,6.378-0.8,9.018-2.396
			c2.64-1.598,4.706-3.809,6.202-6.634c1.494-2.824,2.243-6.056,2.243-9.694c0-3.638-0.749-6.862-2.243-9.672
			c-1.496-2.811-3.563-5.021-6.202-6.634s-5.645-2.419-9.018-2.419c-3.372,0-6.377,0.807-9.017,2.419s-4.706,3.823-6.202,6.634
			c-1.494,2.81-2.243,6.034-2.243,9.672c0,3.639,0.749,6.87,2.243,9.694c1.496,2.825,3.563,5.036,6.202,6.634
			C940.024,326.631,943.029,327.431,946.401,327.431"/>
		<path fill="#FFFFFF" d="M930.528,351.648h-7.574v-66.36h7.441v6.05c1.465-1.608,3.194-2.98,5.173-4.102
			c3.424-1.94,7.202-2.924,11.229-2.924c4.418,0,8.435,1.056,11.938,3.139c3.503,2.083,6.299,4.99,8.31,8.641
			c2.007,3.639,3.024,7.884,3.024,12.615c0,4.732-1.018,8.978-3.024,12.616c-2.011,3.649-4.807,6.556-8.31,8.639
			c-3.504,2.083-7.521,3.139-11.938,3.139c-3.966,0-7.697-0.959-11.089-2.852c-1.975-1.101-3.706-2.454-5.181-4.045V351.648z
			 M925.954,348.648h1.574v-32.72l2.805,4.951c1.614,2.849,3.915,5.12,6.837,6.75c2.94,1.64,6.18,2.471,9.628,2.471
			c3.871,0,7.372-0.914,10.405-2.717c3.037-1.807,5.465-4.333,7.216-7.509c1.76-3.19,2.651-6.948,2.651-11.168
			c0-4.219-0.892-7.977-2.651-11.167c-1.75-3.177-4.178-5.704-7.216-7.511c-3.033-1.803-6.534-2.717-10.405-2.717
			c-3.503,0-6.784,0.853-9.751,2.533c-2.951,1.673-5.251,3.99-6.835,6.891l-2.816,5.153v-13.602h-1.441V348.648z M946.401,328.931
			c-3.631,0-6.926-0.879-9.793-2.612c-2.862-1.731-5.133-4.159-6.751-7.215c-1.604-3.032-2.418-6.53-2.418-10.396
			c0-3.867,0.813-7.358,2.419-10.376c1.617-3.038,3.887-5.464,6.744-7.21c2.867-1.751,6.164-2.639,9.799-2.639
			c3.636,0,6.933,0.888,9.8,2.639c2.857,1.746,5.127,4.172,6.744,7.209c1.605,3.019,2.419,6.51,2.419,10.377
			c0,3.866-0.813,7.364-2.417,10.396c-1.619,3.057-3.89,5.484-6.752,7.216C953.328,328.052,950.033,328.931,946.401,328.931z
			 M946.401,291.482c-3.075,0-5.846,0.74-8.234,2.199c-2.395,1.462-4.299,3.501-5.66,6.059c-1.372,2.579-2.067,5.596-2.067,8.967
			c0,3.372,0.696,6.397,2.069,8.993c1.36,2.568,3.262,4.604,5.652,6.052c2.392,1.445,5.164,2.179,8.24,2.179
			c3.077,0,5.85-0.733,8.241-2.179c2.391-1.447,4.292-3.483,5.653-6.053c1.372-2.595,2.068-5.62,2.068-8.992
			c0-3.371-0.695-6.388-2.067-8.968c-1.361-2.557-3.266-4.596-5.66-6.058C952.248,292.223,949.478,291.482,946.401,291.482z"/>
	</g>
	<g>
		<path fill="#FFFFFF" d="M979.566,330.625h-4.574v-43.837h4.441v10.56c1.495-3.371,3.805-6.063,6.929-8.075
			c3.121-2.01,6.575-3.017,10.357-3.017c0.411,0,0.99,0.029,1.737,0.089c0.749,0.06,1.387,0.148,1.913,0.267v4.26
			c-0.526-0.118-1.144-0.2-1.847-0.244c-0.704-0.044-1.261-0.066-1.672-0.066c-3.46,0-6.487,0.82-9.083,2.462
			c-2.595,1.642-4.611,3.926-6.048,6.855c-1.437,2.928-2.154,6.3-2.154,10.115V330.625z"/>
		<path fill="#FFFFFF" d="M981.066,332.125h-7.574v-46.837h7.441v6.795c1.297-1.565,2.839-2.927,4.616-4.071
			c3.355-2.16,7.113-3.256,11.17-3.256c0.459,0,1.066,0.03,1.856,0.094c0.827,0.065,1.521,0.163,2.122,0.298l1.172,0.264v7.334
			l-1.828-0.41c-0.45-0.102-0.993-0.172-1.612-0.211c-0.664-0.041-1.19-0.063-1.578-0.063c-3.155,0-5.941,0.75-8.281,2.229
			c-2.347,1.484-4.198,3.587-5.503,6.248c-1.328,2.707-2.001,5.888-2.001,9.455V332.125z M976.492,329.125h1.574v-19.132
			c0-4.029,0.776-7.655,2.308-10.776c1.553-3.166,3.771-5.677,6.593-7.462c2.827-1.788,6.152-2.694,9.885-2.694
			c0.435,0,1.021,0.022,1.766,0.069c0.085,0.005,0.17,0.011,0.253,0.018v-1.258c-0.17-0.019-0.347-0.035-0.532-0.05
			c-0.7-0.056-1.244-0.084-1.618-0.084c-3.472,0-6.683,0.935-9.545,2.777c-2.859,1.843-5.003,4.34-6.37,7.423l-2.871,6.474v-16.142
			h-1.441V329.125z"/>
	</g>
	<g>
		<path fill="#FFFFFF" d="M1044.444,330.625h-4.443v-9.229c-1.729,3.165-4.2,5.657-7.411,7.477
			c-3.212,1.818-6.708,2.728-10.491,2.728c-4.164,0-7.888-0.976-11.172-2.928c-3.284-1.953-5.872-4.644-7.763-8.074
			c-1.892-3.432-2.836-7.395-2.836-11.892c0-4.496,0.944-8.459,2.836-11.892c1.891-3.432,4.479-6.122,7.763-8.075
			c3.284-1.952,7.008-2.928,11.172-2.928c3.783,0,7.279,0.909,10.491,2.729c3.211,1.819,5.682,4.311,7.411,7.476v-9.229h4.443
			V330.625z M1022.494,327.431c3.401,0,6.415-0.8,9.04-2.396c2.624-1.597,4.684-3.808,6.18-6.633
			c1.496-2.824,2.243-6.056,2.243-9.694c0-3.638-0.747-6.862-2.243-9.672c-1.496-2.811-3.556-5.021-6.18-6.634
			c-2.625-1.612-5.639-2.419-9.04-2.419c-3.4,0-6.416,0.807-9.037,2.419c-2.626,1.612-4.686,3.823-6.181,6.634
			c-1.495,2.81-2.242,6.034-2.242,9.672c0,3.639,0.747,6.87,2.242,9.694c1.495,2.825,3.555,5.036,6.181,6.633
			C1016.078,326.631,1019.094,327.431,1022.494,327.431 M1036.307,265.357l-13.548,13.134h-5.015l12.492-13.134H1036.307z"/>
		<path fill="#FFFFFF" d="M1022.099,333.101c-4.418,0-8.435-1.056-11.938-3.139c-3.503-2.083-6.299-4.989-8.31-8.64
			c-2.006-3.638-3.022-7.882-3.022-12.615c0-4.732,1.017-8.977,3.022-12.615c2.011-3.65,4.807-6.558,8.31-8.641
			c3.504-2.083,7.521-3.139,11.938-3.139c4.027,0,7.806,0.983,11.23,2.924c1.979,1.12,3.707,2.492,5.172,4.101v-6.049h7.443v46.837
			h-7.443v-6.049c-1.465,1.609-3.193,2.981-5.172,4.102C1029.903,332.117,1026.125,333.101,1022.099,333.101z M1022.099,287.313
			c-3.871,0-7.372,0.914-10.405,2.717c-3.038,1.807-5.466,4.334-7.216,7.51c-1.758,3.19-2.649,6.948-2.649,11.168
			c0,4.221,0.892,7.978,2.649,11.168c1.751,3.176,4.179,5.702,7.216,7.509c3.033,1.803,6.534,2.717,10.405,2.717
			c3.502,0,6.783-0.853,9.752-2.533c2.949-1.671,5.249-3.989,6.834-6.891l2.816-5.153v13.602h1.443v-40.837h-1.443v13.602
			l-2.816-5.153c-1.585-2.9-3.884-5.219-6.834-6.891C1028.883,288.165,1025.602,287.313,1022.099,287.313z M1022.494,328.931
			c-3.665,0-6.969-0.88-9.817-2.615c-2.846-1.73-5.109-4.157-6.727-7.213c-1.603-3.028-2.416-6.526-2.416-10.396
			c0-3.87,0.813-7.361,2.418-10.377c1.615-3.036,3.876-5.461,6.72-7.207c2.849-1.752,6.153-2.641,9.822-2.641
			c3.667,0,6.973,0.889,9.825,2.641c2.842,1.746,5.103,4.171,6.719,7.207c1.605,3.015,2.419,6.506,2.419,10.377
			c0,3.87-0.813,7.368-2.418,10.396c-1.617,3.055-3.88,5.48-6.726,7.212C1029.461,328.051,1026.157,328.931,1022.494,328.931z
			 M1022.494,291.482c-3.105,0-5.882,0.739-8.251,2.196c-2.384,1.464-4.281,3.503-5.643,6.061c-1.371,2.577-2.066,5.594-2.066,8.968
			c0,3.375,0.695,6.4,2.068,8.992c1.359,2.57,3.256,4.607,5.634,6.054c2.373,1.445,5.151,2.178,8.258,2.178
			c3.105,0,5.885-0.732,8.261-2.178c2.377-1.446,4.272-3.483,5.634-6.054c1.372-2.591,2.068-5.616,2.068-8.992
			c0-3.374-0.695-6.391-2.067-8.967c-1.361-2.559-3.26-4.598-5.641-6.061C1028.376,292.222,1025.599,291.482,1022.494,291.482z
			 M1023.366,279.991h-9.119l15.346-16.134h10.416L1023.366,279.991z M1021.241,276.991h0.91l10.453-10.134h-1.725L1021.241,276.991
			z"/>
	</g>
	<g>
		<path fill="#FFFFFF" d="M1086.978,322.239l2.332,3.549c-2.405,1.982-5,3.446-7.785,4.394c-2.786,0.946-5.616,1.419-8.49,1.419
			c-4.34,0-8.175-0.976-11.501-2.928c-3.329-1.953-5.939-4.644-7.83-8.074c-1.891-3.432-2.836-7.395-2.836-11.892
			c0-4.496,0.945-8.459,2.836-11.892c1.891-3.431,4.501-6.122,7.83-8.075c3.326-1.952,7.161-2.928,11.501-2.928
			c5.659,0,10.747,1.672,15.264,5.014l-2.332,3.549c-1.818-1.39-3.856-2.469-6.113-3.238c-2.259-0.769-4.53-1.154-6.818-1.154
			c-3.401,0-6.415,0.807-9.038,2.419c-2.626,1.612-4.686,3.823-6.18,6.634c-1.496,2.81-2.243,6.034-2.243,9.672
			c0,3.639,0.747,6.87,2.243,9.694c1.494,2.825,3.554,5.036,6.18,6.633c2.623,1.597,5.637,2.396,9.038,2.396
			c2.375,0,4.787-0.428,7.235-1.287C1082.718,325.286,1084.954,323.984,1086.978,322.239"/>
		<path fill="#FFFFFF" d="M1073.034,333.101c-4.592,0-8.717-1.055-12.26-3.134c-3.551-2.083-6.372-4.991-8.385-8.645
			c-2.006-3.64-3.022-7.884-3.022-12.615c0-4.73,1.017-8.975,3.022-12.615c2.014-3.654,4.834-6.563,8.385-8.646
			c3.543-2.079,7.668-3.134,12.26-3.134c5.96,0,11.396,1.786,16.156,5.308l1.141,0.844l-3.996,6.081l-1.28-0.979
			c-1.68-1.283-3.593-2.296-5.687-3.01c-2.094-0.713-4.226-1.074-6.334-1.074c-3.104,0-5.881,0.739-8.253,2.197
			c-2.383,1.463-4.28,3.502-5.641,6.06c-1.372,2.577-2.067,5.594-2.067,8.968c0,3.376,0.696,6.401,2.068,8.992
			c1.359,2.57,3.255,4.606,5.634,6.054c2.375,1.445,5.153,2.178,8.259,2.178c2.198,0,4.466-0.404,6.738-1.202
			c2.26-0.792,4.354-2.011,6.226-3.625l1.294-1.116l4.011,6.103l-1.039,0.855c-2.533,2.088-5.312,3.654-8.256,4.656
			C1079.079,332.597,1076.061,333.101,1073.034,333.101z M1073.034,287.313c-4.051,0-7.665,0.916-10.742,2.722
			c-3.078,1.806-5.525,4.331-7.275,7.505c-1.758,3.192-2.649,6.95-2.649,11.168c0,4.219,0.892,7.977,2.649,11.168
			c1.749,3.173,4.197,5.698,7.275,7.504c3.077,1.806,6.691,2.722,10.742,2.722c2.697,0,5.392-0.45,8.008-1.339
			c2.198-0.748,4.298-1.857,6.255-3.305l-0.668-1.018c-1.808,1.341-3.773,2.388-5.863,3.12c-2.593,0.909-5.194,1.371-7.731,1.371
			c-3.664,0-6.967-0.88-9.818-2.615c-2.847-1.731-5.109-4.158-6.726-7.213c-1.604-3.027-2.417-6.525-2.417-10.396
			c0-3.871,0.813-7.362,2.419-10.377c1.614-3.035,3.875-5.461,6.719-7.207c2.851-1.752,6.156-2.641,9.823-2.641
			c2.438,0,4.895,0.415,7.302,1.234c1.875,0.64,3.628,1.49,5.229,2.538l0.679-1.034
			C1082.296,288.627,1077.858,287.313,1073.034,287.313z"/>
	</g>
	<g>
		<path fill="#FFFFFF" d="M1129.512,322.373l2.111,3.549c-2.348,1.716-5.096,3.091-8.247,4.127c-3.154,1.035-6.387,1.552-9.7,1.552
			c-4.515,0-8.438-0.96-11.765-2.883c-3.329-1.923-5.91-4.606-7.741-8.053c-1.834-3.446-2.749-7.433-2.749-11.958
			c0-4.496,0.901-8.468,2.704-11.914c1.804-3.444,4.311-6.137,7.521-8.075c3.211-1.937,6.897-2.905,11.062-2.905
			c3.931,0,7.375,0.851,10.338,2.551c2.961,1.701,5.271,4.111,6.928,7.232c1.656,3.121,2.485,6.781,2.485,10.981v4.126h-36.332
			c0.38,5.029,2.177,9.074,5.388,12.136c3.21,3.061,7.353,4.592,12.425,4.592c2.61,0,5.272-0.427,7.983-1.287
			C1124.636,325.286,1127.165,324.029,1129.512,322.373 M1112.708,289.982c-2.961,0-5.646,0.688-8.048,2.064
			c-2.405,1.375-4.363,3.313-5.873,5.813c-1.511,2.499-2.396,5.434-2.66,8.807h31.625v-1.021c0-3.017-0.646-5.701-1.938-8.053
			c-1.289-2.353-3.063-4.209-5.32-5.568C1118.235,290.664,1115.641,289.982,1112.708,289.982"/>
		<path fill="#FFFFFF" d="M1113.676,333.101c-4.764,0-8.975-1.038-12.516-3.084c-3.562-2.058-6.359-4.967-8.314-8.647
			c-1.94-3.646-2.925-7.907-2.925-12.662c0-4.72,0.967-8.963,2.875-12.609c1.926-3.677,4.643-6.592,8.075-8.664
			c3.435-2.071,7.417-3.121,11.837-3.121c4.176,0,7.904,0.925,11.084,2.75c3.198,1.837,5.723,4.471,7.507,7.83
			c1.765,3.326,2.66,7.258,2.66,11.685v5.626H1097.8c0.575,3.924,2.138,7.059,4.75,9.55c2.948,2.812,6.674,4.178,11.39,4.178
			c2.452,0,4.985-0.409,7.529-1.217c2.554-0.808,4.969-2.007,7.178-3.566l1.325-0.935l3.638,6.115l-1.102,0.805
			c-2.463,1.8-5.377,3.261-8.663,4.341C1120.555,332.554,1117.134,333.101,1113.676,333.101z M1112.708,287.313
			c-3.866,0-7.327,0.905-10.287,2.689c-2.956,1.785-5.3,4.304-6.967,7.487c-1.681,3.213-2.533,6.987-2.533,11.218
			c0,4.259,0.866,8.045,2.573,11.253c1.688,3.178,4.1,5.687,7.167,7.459c3.079,1.779,6.785,2.682,11.015,2.682
			c3.14,0,6.246-0.497,9.232-1.477c2.496-0.821,4.746-1.876,6.708-3.143l-0.587-0.986c-2.086,1.308-4.318,2.341-6.654,3.079
			c-2.837,0.899-5.675,1.356-8.436,1.356c-5.447,0-9.976-1.685-13.46-5.006c-3.474-3.313-5.441-7.723-5.849-13.108l-0.121-1.613
			h36.449v-2.626c0-3.932-0.777-7.39-2.311-10.278c-1.514-2.852-3.65-5.084-6.35-6.635
			C1119.58,288.104,1116.353,287.313,1112.708,287.313z M1129.252,308.166h-34.747l0.127-1.617c0.28-3.593,1.247-6.777,2.872-9.466
			c1.636-2.708,3.793-4.841,6.412-6.338c2.618-1.501,5.577-2.263,8.792-2.263c3.193,0,6.073,0.76,8.56,2.257
			c2.478,1.491,4.45,3.555,5.862,6.133c1.408,2.564,2.122,5.517,2.122,8.773V308.166z M1097.806,305.166h28.44
			c-0.065-2.555-0.651-4.857-1.746-6.852c-1.155-2.107-2.763-3.791-4.779-5.005c-2.014-1.213-4.373-1.827-7.013-1.827
			c-2.686,0-5.142,0.628-7.302,1.866c-2.172,1.241-3.966,3.02-5.335,5.286C1098.934,300.516,1098.175,302.707,1097.806,305.166z"/>
	</g>
	<g>
		<path fill="#FFFFFF" d="M1145.257,327.786c0,1.005-0.316,1.818-0.945,2.439c-0.631,0.621-1.46,0.932-2.485,0.932
			c-1.027,0-1.855-0.311-2.486-0.932s-0.945-1.435-0.945-2.439c0-1.007,0.314-1.82,0.945-2.441c0.631-0.622,1.459-0.932,2.486-0.932
			c1.025,0,1.854,0.31,2.485,0.932C1144.94,325.966,1145.257,326.779,1145.257,327.786"/>
		<path fill="#FFFFFF" d="M1141.826,332.657c-1.43,0-2.62-0.458-3.539-1.362c-0.924-0.91-1.393-2.091-1.393-3.509
			c0-1.419,0.469-2.601,1.393-3.511c0.917-0.903,2.108-1.362,3.539-1.362s2.621,0.459,3.538,1.363
			c0.925,0.913,1.393,2.094,1.393,3.51c0,1.396-0.481,2.607-1.392,3.507C1144.445,332.199,1143.255,332.657,1141.826,332.657z
			 M1141.826,325.913c-0.83,0-1.216,0.285-1.434,0.5c-0.214,0.211-0.498,0.582-0.498,1.373c0,0.789,0.284,1.16,0.498,1.37
			c0.218,0.215,0.604,0.501,1.434,0.501c0.829,0,1.215-0.286,1.433-0.501c0.213-0.21,0.498-0.582,0.498-1.37
			c0-0.79-0.285-1.162-0.499-1.374C1143.041,326.198,1142.655,325.913,1141.826,325.913z"/>
	</g>
	<g>
		<path fill="#1A7B68" d="M1184.755,322.239l2.331,3.549c-2.405,1.982-5,3.446-7.785,4.394c-2.786,0.946-5.615,1.419-8.489,1.419
			c-4.341,0-8.175-0.976-11.502-2.928c-3.328-1.953-5.938-4.644-7.83-8.074c-1.891-3.432-2.836-7.395-2.836-11.892
			c0-4.496,0.945-8.459,2.836-11.892c1.892-3.431,4.502-6.122,7.83-8.075c3.327-1.952,7.161-2.928,11.502-2.928
			c5.658,0,10.746,1.672,15.263,5.014l-2.332,3.549c-1.818-1.39-3.856-2.469-6.113-3.238c-2.258-0.769-4.53-1.154-6.817-1.154
			c-3.402,0-6.416,0.807-9.039,2.419c-2.625,1.612-4.686,3.823-6.18,6.634c-1.496,2.81-2.243,6.034-2.243,9.672
			c0,3.639,0.747,6.87,2.243,9.694c1.494,2.825,3.555,5.036,6.18,6.633c2.623,1.597,5.637,2.396,9.039,2.396
			c2.375,0,4.787-0.428,7.235-1.287C1180.494,325.286,1182.73,323.984,1184.755,322.239"/>
		<path fill="#1A7B68" d="M1170.812,333.101c-4.592,0-8.717-1.055-12.261-3.134c-3.55-2.083-6.371-4.991-8.385-8.644
			c-2.006-3.641-3.022-7.885-3.022-12.616c0-4.73,1.017-8.975,3.022-12.615c2.015-3.654,4.835-6.563,8.385-8.646
			c3.544-2.079,7.669-3.134,12.261-3.134c5.959,0,11.395,1.786,16.155,5.308l1.141,0.844l-3.996,6.081l-1.28-0.979
			c-1.68-1.283-3.593-2.296-5.687-3.01c-2.093-0.713-4.225-1.074-6.333-1.074c-3.105,0-5.882,0.739-8.254,2.197
			c-2.383,1.464-4.281,3.502-5.641,6.06c-1.372,2.577-2.067,5.594-2.067,8.968c0,3.376,0.696,6.401,2.068,8.992
			c1.359,2.569,3.255,4.606,5.634,6.054c2.375,1.445,5.153,2.178,8.26,2.178c2.198,0,4.466-0.404,6.738-1.202
			c2.259-0.792,4.354-2.011,6.226-3.625l1.295-1.116l4.008,6.103l-1.038,0.855c-2.533,2.088-5.312,3.654-8.256,4.656
			C1176.855,332.597,1173.837,333.101,1170.812,333.101z M1170.812,287.313c-4.051,0-7.665,0.916-10.743,2.722
			c-3.077,1.806-5.525,4.331-7.275,7.506c-1.758,3.191-2.649,6.949-2.649,11.167c0,4.219,0.892,7.977,2.649,11.168
			c1.75,3.173,4.198,5.698,7.275,7.504c3.078,1.806,6.692,2.722,10.743,2.722c2.696,0,5.391-0.45,8.007-1.339
			c2.198-0.748,4.298-1.857,6.256-3.305l-0.669-1.018c-1.807,1.341-3.772,2.388-5.862,3.12c-2.593,0.909-5.194,1.371-7.731,1.371
			c-3.665,0-6.968-0.88-9.819-2.615c-2.848-1.732-5.11-4.159-6.726-7.213c-1.604-3.027-2.417-6.525-2.417-10.396
			c0-3.871,0.813-7.362,2.419-10.377c1.613-3.034,3.874-5.46,6.719-7.207c2.851-1.752,6.156-2.641,9.824-2.641
			c2.438,0,4.895,0.415,7.301,1.234c1.875,0.64,3.628,1.49,5.229,2.538l0.679-1.034
			C1180.072,288.627,1175.635,287.313,1170.812,287.313z"/>
	</g>
	<g>
		<polygon fill="#1A7B68" points="1226.409,330.625 1189.637,330.625 1189.637,327.076 1218.799,290.826 1190.693,290.826 
			1190.693,286.788 1224.825,286.788 1224.825,290.339 1195.663,326.587 1226.409,326.587 		"/>
		<path fill="#1A7B68" d="M1227.909,332.125h-39.772v-5.577l27.53-34.222h-26.474v-7.038h37.132v5.579l-27.53,34.22h29.114V332.125z
			 M1191.137,329.125h33.772v-1.038h-32.378l30.794-38.276v-1.522h-31.132v1.038h29.737l-30.794,38.278V329.125z"/>
	</g>
</g>
</svg>
