<svg xmlns="http://www.w3.org/2000/svg" viewBox="144.74 86.08 327.82 327.82">
<path fill="#1A7B68" d="M173.559,167.689v175.418c0,0,21.951,1.363,50.576,7.145
		c28.625,5.782,55.982,16.357,55.982,16.357V191.474c0,0-27.427-9.801-51.658-15.324
		C204.229,170.627,173.559,167.689,173.559,167.689"/>
<path fill="#1A7B68" d="M237.671,166.232c34.783,11.187,52.691,18.002,52.691,18.002
		s-34.712-17.649-49.447-24.348c-28.273-13.537-53.279-16.193-53.279-16.193s-0.835,1.74-3.996,6.064
		c-3.161,4.325-4.841,5.97-4.841,5.97S202.888,155.045,237.671,166.232"/>
<path fill="#1A7B68" d="M295.481,173.135c0,0-28.003-18.875-39.975-26.203
		c-22.898-14.651-44.138-19.59-44.138-19.59s-0.903,1.408-4.082,4.794c-3.18,3.387-4.8,4.624-4.8,4.624s20.805,1.97,49.555,15.29
		C280.792,165.368,295.481,173.135,295.481,173.135"/>
<path fill="#1A7B68" d="M318.081,195.664c-3.425,0.396-6.584,0.534-9.057,0.444
		c-2.473,0.09-5.632-0.048-9.057-0.444c-5.353-0.619-9.934-1.701-12.189-2.773c0.001,0.609,0.199,159.434,0,168.043
		c-0.001,12.937,21.245,11.691,21.246,11.691c0,0,21.247,1.245,21.245-11.691c-0.199-8.609,0-167.435,0-168.043
		C328.015,193.963,323.433,195.045,318.081,195.664"/>
<path fill="#1A7B68" d="M327.684,184.235c0,0,17.908-6.815,52.691-18.002
		c34.783-11.187,58.872-10.506,58.872-10.506s-1.68-1.645-4.841-5.97c-3.161-4.324-3.995-6.063-3.995-6.063
		s-25.006,2.656-53.279,16.193C362.396,166.585,327.684,184.235,327.684,184.235"/>
<path fill="#1A7B68" d="M415.561,136.76c0,0-1.621-1.237-4.8-4.624
		c-3.18-3.386-4.082-4.795-4.082-4.795s-21.241,4.94-44.138,19.59c-11.972,7.329-39.976,26.204-39.976,26.204
		s14.691-7.767,43.441-21.086C394.754,138.73,415.561,136.76,415.561,136.76"/>
<path fill="#1A7B68" d="M405.012,298.168l-4.767,4.767l-41.216,11.044
		c-1.764,0.473-3.377-1.142-2.905-2.904l11.044-41.217l4.767-4.767l72.553-72.553v-24.849c0,0-30.67,2.938-54.9,8.461
		c-24.231,5.523-51.658,15.323-51.658,15.323v175.136c0,0,27.357-10.575,55.982-16.357c28.625-5.781,50.576-7.145,50.576-7.145
		v-84.416L405.012,298.168z"/>
<path fill="#0E1F2D" d="M367.815,304.157l26.534-7.109l-21.294-21.294l-7.11,26.534
		C365.641,303.423,366.68,304.462,367.815,304.157"/>
</svg>
